<svg width="501" height="447" viewBox="0 0 501 447" fill="none" xmlns="http://www.w3.org/2000/svg">
<path d="M261.035 440.702C256.4 448.773 244.74 448.725 240.173 440.616L2.07584 17.889C-2.42971 9.88971 3.35051 0 12.5314 0H218.584C221.018 0 221.34 3.5251 218.947 3.96679L147.639 17.1264C139.541 18.6209 135.32 27.6413 139.361 34.8162L217.385 173.344L311.671 340.742C313.747 344.429 313.728 348.937 311.621 352.606L261.035 440.702Z" fill="url(#paint0_linear_26_36)"/>
<path d="M381.249 0L315.888 116.044L378.279 232.088L443.639 116.044L381.249 0Z" fill="url(#paint1_linear_26_36)"/>
<path d="M498.924 17.889C503.43 9.88968 497.649 0 488.469 0H381.249L443.639 116.044L498.924 17.889Z" fill="url(#paint2_linear_26_36)"/>
<path d="M260.603 214.199C256.098 222.198 261.878 232.088 271.059 232.088H378.279L315.888 116.044L260.603 214.199Z" fill="url(#paint3_linear_26_36)"/>
<defs>
<linearGradient id="paint0_linear_26_36" x1="-8" y1="0" x2="250.59" y2="458.949" gradientUnits="userSpaceOnUse">
<stop stop-color="#538DFF"/>
<stop offset="1" stop-color="#5EE2FF"/>
</linearGradient>
<linearGradient id="paint1_linear_26_36" x1="320.118" y1="114.666" x2="444.171" y2="114.666" gradientUnits="userSpaceOnUse">
<stop stop-color="#538DFF"/>
<stop offset="1" stop-color="#5EE2FF"/>
</linearGradient>
<linearGradient id="paint2_linear_26_36" x1="381.64" y1="9.9438e-06" x2="502.331" y2="-5.4281e-06" gradientUnits="userSpaceOnUse">
<stop stop-color="#538DFF"/>
<stop offset="1" stop-color="#5EE2FF"/>
</linearGradient>
<linearGradient id="paint3_linear_26_36" x1="250.191" y1="229.332" x2="376.934" y2="229.332" gradientUnits="userSpaceOnUse">
<stop stop-color="#538DFF"/>
<stop offset="1" stop-color="#5EE2FF"/>
</linearGradient>
</defs>
</svg>
