<svg width="119" height="30" viewBox="0 0 119 30" fill="none" xmlns="http://www.w3.org/2000/svg">
<g clip-path="url(#clip0_82_1738)">
<path d="M14.3953 24.7123C14.1473 25.1648 13.5234 25.1621 13.2791 24.7074L0.539138 1.00312C0.298061 0.554563 0.607344 0 1.09859 0H12.1239C12.2541 0 12.2714 0.197669 12.1433 0.222437L8.32782 0.960359C7.89452 1.04416 7.66866 1.54998 7.88488 1.95231L12.0597 9.72022L17.1047 19.107C17.2158 19.3138 17.2148 19.5666 17.102 19.7723L14.3953 24.7123Z" fill="url(#paint0_linear_82_1738)"/>
<path d="M20.8276 0L17.3303 6.50714L20.6687 13.0143L24.1659 6.50714L20.8276 0Z" fill="url(#paint1_linear_82_1738)"/>
<path d="M27.1241 1.00312C27.3652 0.554562 27.0559 0 26.5647 0H20.8276L24.166 6.50714L27.1241 1.00312Z" fill="url(#paint2_linear_82_1738)"/>
<path d="M14.3721 12.0111C14.1311 12.4596 14.4404 13.0142 14.9316 13.0142H20.6686L17.3303 6.50708L14.3721 12.0111Z" fill="url(#paint3_linear_82_1738)"/>
<path d="M28.1984 13.8504C29.454 13.8504 30.4386 14.2467 31.152 15.0392C31.8654 15.8317 32.2221 17.0878 32.2221 18.8074H24.8381L24.7953 18.3813H29.9534C29.9677 17.6485 29.9106 16.9756 29.7822 16.3626C29.6538 15.7345 29.454 15.2336 29.1829 14.8598C28.9118 14.4859 28.5551 14.299 28.1128 14.299C27.4992 14.299 26.9641 14.6429 26.5075 15.3308C26.0652 16.0037 25.7941 17.0878 25.6942 18.5831L25.7584 18.6953C25.7442 18.9046 25.7299 19.1364 25.7156 19.3906C25.7014 19.6299 25.6942 19.8691 25.6942 20.1084C25.6942 21.1402 25.8441 22.0075 26.1437 22.7102C26.4433 23.413 26.8357 23.9439 27.3209 24.3028C27.806 24.6467 28.2983 24.8187 28.7977 24.8187C29.1829 24.8187 29.5539 24.7588 29.9106 24.6392C30.2816 24.5046 30.6312 24.2878 30.9593 23.9888C31.2875 23.6747 31.58 23.2486 31.8369 22.7102L32.2649 22.8897C32.0937 23.3981 31.8298 23.899 31.473 24.3925C31.1163 24.8859 30.6597 25.2897 30.1032 25.6037C29.5468 25.9028 28.8976 26.0523 28.1556 26.0523C27.1568 26.0523 26.2864 25.8205 25.5444 25.357C24.8024 24.8785 24.2317 24.1981 23.8322 23.3159C23.4327 22.4336 23.2329 21.3869 23.2329 20.1757C23.2329 18.8448 23.4398 17.7084 23.8536 16.7663C24.2674 15.8243 24.8452 15.1065 25.5872 14.6131C26.3434 14.1046 27.2138 13.8504 28.1984 13.8504ZM41.1028 13.8504C41.6736 13.8504 42.1373 13.9327 42.494 14.0972C42.865 14.2467 43.1718 14.456 43.4143 14.7252C43.6712 15.0093 43.8495 15.3757 43.9494 15.8243C44.0635 16.2729 44.1206 16.8785 44.1206 17.6411V23.6523C44.1206 24.2803 44.2347 24.7065 44.4631 24.9308C44.7056 25.1551 45.1052 25.2673 45.6616 25.2673V25.7383C45.4191 25.7233 45.0409 25.7084 44.5273 25.6934C44.0136 25.6635 43.5071 25.6486 43.0077 25.6486C42.5225 25.6486 42.0374 25.6635 41.5523 25.6934C41.0814 25.7084 40.7247 25.7233 40.4821 25.7383V25.2673C40.9673 25.2673 41.3097 25.1551 41.5095 24.9308C41.7092 24.7065 41.8091 24.2803 41.8091 23.6523V17.0131C41.8091 16.5794 41.7734 16.1906 41.7021 15.8467C41.6308 15.4878 41.4809 15.2037 41.2526 14.9944C41.0243 14.7701 40.6819 14.6579 40.2253 14.6579C39.6973 14.6579 39.2265 14.8149 38.8127 15.1289C38.4132 15.443 38.0921 15.8766 37.8496 16.4299C37.6213 16.9682 37.5071 17.5738 37.5071 18.2467V23.6523C37.5071 24.2803 37.607 24.7065 37.8068 24.9308C38.0208 25.1551 38.3632 25.2673 38.8341 25.2673V25.7383C38.6058 25.7233 38.2562 25.7084 37.7854 25.6934C37.3288 25.6635 36.8508 25.6486 36.3514 25.6486C35.8662 25.6486 35.3597 25.6635 34.8318 25.6934C34.3038 25.7084 33.9114 25.7233 33.6546 25.7383V25.2673C34.2111 25.2673 34.6035 25.1551 34.8318 24.9308C35.0743 24.7065 35.1956 24.2803 35.1956 23.6523V16.6093C35.1956 15.9364 35.0886 15.443 34.8746 15.1289C34.6605 14.7999 34.2539 14.6355 33.6546 14.6355V14.1645C34.1112 14.2093 34.5535 14.2317 34.9816 14.2317C35.4667 14.2317 35.9162 14.2093 36.33 14.1645C36.758 14.1046 37.1504 14.0224 37.5071 13.9177V16.3626C37.8781 15.4355 38.3846 14.785 39.0267 14.4112C39.6831 14.0373 40.3751 13.8504 41.1028 13.8504ZM56.5888 13.9177V23.3159C56.5888 23.9888 56.6958 24.4897 56.9098 24.8187C57.1377 25.1327 57.5444 25.2897 58.1298 25.2897V25.7607C57.6873 25.7159 57.2448 25.6934 56.8028 25.6934C56.3319 25.6934 55.8825 25.7159 55.4544 25.7607C55.0263 25.8056 54.6336 25.8878 54.2772 26.0074V23.5626C53.9204 24.4598 53.421 25.1028 52.7789 25.4916C52.1511 25.8654 51.4876 26.0523 50.7885 26.0523C50.2605 26.0523 49.8111 25.97 49.4401 25.8056C49.0691 25.656 48.7623 25.4542 48.5198 25.2C48.2629 24.9009 48.0845 24.5196 47.9847 24.056C47.8848 23.5776 47.8349 22.9794 47.8349 22.2616V16.6093C47.8349 15.9364 47.7279 15.443 47.5138 15.1289C47.2998 14.7999 46.8931 14.6355 46.2939 14.6355V14.1645C46.7504 14.2093 47.1928 14.2317 47.6208 14.2317C48.0917 14.2317 48.5412 14.2093 48.9692 14.1645C49.3973 14.1046 49.7897 14.0224 50.1464 13.9177V22.8897C50.1464 23.3233 50.1749 23.7196 50.232 24.0785C50.289 24.4373 50.4246 24.7215 50.6387 24.9308C50.8527 25.1401 51.1951 25.2448 51.666 25.2448C52.1654 25.2448 52.6077 25.0878 52.993 24.7738C53.3925 24.4598 53.7063 24.0336 53.9348 23.4953C54.1627 22.957 54.2772 22.3514 54.2772 21.6785V16.6093C54.2772 15.9364 54.1702 15.443 53.9562 15.1289C53.7422 14.7999 53.3354 14.6355 52.7361 14.6355V14.1645C53.1927 14.2093 53.6352 14.2317 54.0632 14.2317C54.5341 14.2317 54.9835 14.2093 55.4116 14.1645C55.8397 14.1046 56.2319 14.0224 56.5888 13.9177ZM63.1348 13.8504C63.7058 13.8504 64.198 13.9476 64.6116 14.142C65.0397 14.3215 65.3468 14.4859 65.532 14.6355C66.0028 15.0242 66.2955 14.7701 66.4095 13.8729H66.8803C66.852 14.2916 66.8306 14.7999 66.8161 15.3981C66.8022 15.9813 66.7947 16.7589 66.7947 17.7308H66.3239C66.2382 17.1775 66.0884 16.6392 65.8744 16.1159C65.6748 15.5925 65.3752 15.1588 64.9755 14.8149C64.5902 14.471 64.084 14.299 63.4559 14.299C62.985 14.299 62.5928 14.4411 62.2787 14.7252C61.9652 14.9944 61.8079 15.3981 61.8079 15.9364C61.8079 16.385 61.9363 16.7738 62.1931 17.1028C62.4499 17.4318 62.7785 17.7383 63.1776 18.0224C63.5918 18.3065 64.0338 18.613 64.5046 18.942C65.0327 19.3159 65.5036 19.6897 65.9172 20.0635C66.3453 20.4224 66.6807 20.8261 66.9231 21.2747C67.18 21.7233 67.3084 22.2467 67.3084 22.8448C67.3084 23.5327 67.1302 24.1159 66.7733 24.5944C66.4309 25.0728 65.9745 25.4392 65.4035 25.6934C64.8331 25.9327 64.205 26.0523 63.5201 26.0523C63.1776 26.0523 62.8566 26.0149 62.557 25.9402C62.2573 25.8803 61.9791 25.7981 61.7222 25.6934C61.5655 25.6037 61.4087 25.514 61.2514 25.4243C61.109 25.3196 60.9662 25.2224 60.8233 25.1327C60.681 25.028 60.5526 25.043 60.4381 25.1775C60.3241 25.3121 60.2385 25.5514 60.1812 25.8953H59.7104C59.7393 25.4168 59.7607 24.8336 59.7746 24.1458C59.789 23.4579 59.796 22.5458 59.796 21.4093H60.2668C60.3669 22.2318 60.5167 22.957 60.7163 23.585C60.9164 24.2131 61.2086 24.7065 61.5938 25.0654C61.9935 25.4093 62.5356 25.5813 63.2204 25.5813C63.4917 25.5813 63.763 25.5214 64.0337 25.4018C64.305 25.2673 64.526 25.0579 64.6972 24.7738C64.8829 24.4897 64.9755 24.1084 64.9755 23.6299C64.9755 22.9719 64.7545 22.4336 64.312 22.0149C63.8839 21.5813 63.3275 21.1252 62.6426 20.6467C62.1578 20.2878 61.6939 19.9364 61.2514 19.5925C60.8233 19.2336 60.4739 18.8373 60.2026 18.4037C59.9319 17.9551 59.796 17.4242 59.796 16.8112C59.796 16.1383 59.9458 15.585 60.2454 15.1514C60.5595 14.7177 60.9731 14.3962 61.4868 14.1869C62.0005 13.9626 62.55 13.8504 63.1348 13.8504ZM74.3136 9.85791C74.6415 9.87288 75.0627 9.8878 75.5763 9.90277C76.1044 9.91774 76.6251 9.9252 77.1387 9.9252C77.8236 9.9252 78.4727 9.91774 79.0864 9.90277C79.714 9.8878 80.1565 9.88034 80.4134 9.88034C82.0116 9.88034 83.2027 10.2093 83.9877 10.8673C84.7865 11.5252 85.1862 12.3701 85.1862 13.4018C85.1862 13.9252 85.0648 14.4486 84.8224 14.9719C84.5939 15.4804 84.2161 15.9439 83.688 16.3626C83.1599 16.7663 82.4611 17.0878 81.5905 17.3271V17.3719C82.7891 17.5065 83.7308 17.7757 84.4157 18.1794C85.1006 18.5831 85.5859 19.0691 85.8711 19.6374C86.1563 20.1906 86.2992 20.7738 86.2992 21.3869C86.2992 22.2691 86.0851 23.0392 85.6571 23.6972C85.229 24.3402 84.6083 24.8411 83.795 25.2C82.9962 25.5588 82.033 25.7383 80.9056 25.7383C80.5916 25.7383 80.1137 25.7308 79.4716 25.7159C78.844 25.686 78.0805 25.671 77.1815 25.671C76.6395 25.671 76.1044 25.6785 75.5763 25.6934C75.0627 25.6934 74.6415 25.7084 74.3136 25.7383V25.2897C74.7989 25.2598 75.1627 25.2 75.4051 25.1102C75.6475 25.0205 75.8048 24.8411 75.876 24.5719C75.9616 24.3028 76.0044 23.899 76.0044 23.3607V12.2355C76.0044 11.6822 75.9616 11.2785 75.876 11.0243C75.8048 10.7551 75.6405 10.5757 75.3837 10.4859C75.1413 10.3813 74.7844 10.3215 74.3136 10.3065V9.85791ZM79.9639 10.3065C79.3502 10.3065 78.9435 10.4336 78.7439 10.6878C78.5583 10.942 78.4657 11.4579 78.4657 12.2355V23.3607C78.4657 23.8841 78.5085 24.2803 78.5941 24.5495C78.6797 24.8187 78.8296 24.9981 79.0436 25.0878C79.2721 25.1775 79.6001 25.2224 80.0281 25.2224C81.3123 25.2224 82.2396 24.8859 82.8105 24.213C83.3953 23.5252 83.688 22.5532 83.688 21.2972C83.688 20.1458 83.3953 19.256 82.8105 18.628C82.2396 18 81.2909 17.6859 79.9639 17.6859H77.8878C77.8878 17.6859 77.8878 17.6261 77.8878 17.5065C77.8878 17.3719 77.8878 17.3046 77.8878 17.3046H79.7285C80.5134 17.3046 81.1197 17.1402 81.5477 16.8112C81.9758 16.4673 82.2685 16.0187 82.4252 15.4654C82.582 14.8972 82.6607 14.2916 82.6607 13.6486C82.6607 12.542 82.4536 11.7121 82.04 11.1588C81.6264 10.5906 80.934 10.3065 79.9639 10.3065ZM90.744 25.8953C90.1447 25.8953 89.6311 25.7757 89.203 25.5364C88.7749 25.2971 88.4539 24.9682 88.2399 24.5495C88.0258 24.1308 87.9188 23.6523 87.9188 23.114C87.9188 22.4561 88.0617 21.9252 88.3469 21.5215C88.6321 21.1028 88.9959 20.7663 89.4384 20.5121C89.8949 20.2579 90.3732 20.0485 90.8724 19.8841C91.3861 19.7046 91.8639 19.5402 92.3064 19.3906C92.7628 19.2262 93.1342 19.0392 93.4194 18.8299C93.719 18.6205 93.8688 18.3439 93.8688 18V16.4747C93.8688 15.9364 93.7832 15.5102 93.612 15.1962C93.4552 14.8672 93.2337 14.6355 92.9485 14.5009C92.6772 14.3663 92.3492 14.299 91.964 14.299C91.636 14.299 91.286 14.3513 90.9152 14.456C90.5444 14.5458 90.2517 14.7327 90.0377 15.0168C90.3518 15.1065 90.6086 15.2859 90.8082 15.5551C91.0222 15.8093 91.1293 16.1308 91.1293 16.5196C91.1293 16.9383 90.9939 17.2672 90.7226 17.5065C90.4658 17.7458 90.1378 17.8654 89.7381 17.8654C89.2956 17.8654 88.9676 17.7233 88.7535 17.4392C88.5395 17.1402 88.4325 16.7962 88.4325 16.4074C88.4325 16.0037 88.5251 15.6747 88.7107 15.4205C88.9103 15.1663 89.1671 14.9271 89.4812 14.7028C89.8237 14.4635 90.2587 14.2616 90.7868 14.0972C91.3288 13.9327 91.9281 13.8504 92.5846 13.8504C93.1984 13.8504 93.726 13.9252 94.1685 14.0747C94.6249 14.2093 95.0032 14.4336 95.3028 14.7476C95.6597 15.0915 95.8951 15.5252 96.0091 16.0486C96.1231 16.557 96.1803 17.1775 96.1803 17.9102V24.1009C96.1803 24.4748 96.2231 24.7439 96.3088 24.9084C96.4088 25.0579 96.5656 25.1327 96.7796 25.1327C96.9225 25.1327 97.0578 25.0953 97.1863 25.0205C97.3291 24.9458 97.4929 24.8336 97.6785 24.6841L97.8926 25.0654C97.5929 25.3196 97.2863 25.5214 96.9722 25.671C96.6726 25.8205 96.2874 25.8953 95.8165 25.8953C95.3601 25.8953 94.9887 25.8205 94.7035 25.671C94.4183 25.5214 94.2043 25.3047 94.0615 25.0205C93.933 24.7364 93.8688 24.385 93.8688 23.9663C93.498 24.5944 93.0555 25.0728 92.5419 25.4018C92.0282 25.7308 91.4289 25.8953 90.744 25.8953ZM91.7713 24.8187C92.171 24.8187 92.5418 24.6991 92.8843 24.4598C93.2412 24.2205 93.5692 23.8616 93.8688 23.3831V18.9196C93.712 19.1589 93.4836 19.3682 93.1839 19.5476C92.8843 19.7121 92.5633 19.8841 92.2208 20.0635C91.8784 20.243 91.5504 20.4523 91.2363 20.6916C90.9366 20.9159 90.6867 21.2074 90.4872 21.5663C90.2876 21.9252 90.1875 22.3813 90.1875 22.9345C90.1875 23.5177 90.3304 23.9813 90.6156 24.3252C90.9008 24.6542 91.286 24.8187 91.7713 24.8187ZM102.556 29.9551C101.757 29.9551 101.015 29.8728 100.33 29.7084C99.6594 29.5439 99.1173 29.2897 98.7032 28.9458C98.304 28.6168 98.1039 28.1906 98.1039 27.6673C98.1039 27.1738 98.304 26.7402 98.7032 26.3663C99.1029 25.9925 99.6663 25.7084 100.394 25.514L100.544 25.8729C100.244 26.0074 100.009 26.2243 99.8376 26.5233C99.6808 26.8224 99.6021 27.1514 99.6021 27.5102C99.6021 28.1682 99.8948 28.6766 100.48 29.0355C101.065 29.3944 101.836 29.5738 102.791 29.5738C103.433 29.5738 104.04 29.4841 104.61 29.3046C105.196 29.1402 105.667 28.8635 106.023 28.4747C106.394 28.086 106.579 27.585 106.579 26.9719C106.579 26.4934 106.416 26.0897 106.087 25.7607C105.759 25.4467 105.11 25.2897 104.14 25.2897H102.641C102.142 25.2897 101.678 25.2448 101.25 25.1551C100.822 25.0654 100.473 24.8934 100.201 24.6392C99.9446 24.3701 99.8162 23.9962 99.8162 23.5177C99.8162 22.9794 100.03 22.471 100.458 21.9925C100.886 21.514 101.607 21.043 102.62 20.5794L102.877 20.7813C102.463 21.0205 102.092 21.2673 101.764 21.5215C101.45 21.7607 101.293 22.0598 101.293 22.4187C101.293 22.8971 101.621 23.1364 102.277 23.1364H104.824C105.495 23.1364 106.102 23.2336 106.644 23.428C107.186 23.6074 107.621 23.899 107.949 24.3028C108.278 24.7065 108.442 25.2374 108.442 25.8953C108.442 26.5981 108.221 27.2561 107.778 27.8691C107.35 28.4972 106.701 28.9981 105.83 29.3719C104.96 29.7607 103.869 29.9551 102.556 29.9551ZM102.684 20.9607C101.956 20.9607 101.293 20.8411 100.694 20.6018C100.094 20.3476 99.6235 19.9588 99.2811 19.4355C98.9386 18.9121 98.7674 18.2392 98.7674 17.4168C98.7674 16.5943 98.9386 15.9214 99.2811 15.3981C99.6235 14.8598 100.094 14.471 100.694 14.2317C101.293 13.9776 101.956 13.8504 102.684 13.8504C103.441 13.8504 104.111 13.9776 104.696 14.2317C105.281 14.471 105.745 14.8598 106.087 15.3981C106.43 15.9214 106.601 16.5943 106.601 17.4168C106.601 18.2392 106.43 18.9121 106.087 19.4355C105.745 19.9588 105.281 20.3476 104.696 20.6018C104.111 20.8411 103.441 20.9607 102.684 20.9607ZM102.684 20.557C103.184 20.557 103.569 20.3327 103.84 19.8841C104.111 19.4355 104.247 18.613 104.247 17.4168C104.247 16.2205 104.111 15.3981 103.84 14.9495C103.569 14.4859 103.184 14.2542 102.684 14.2542C102.213 14.2542 101.836 14.4859 101.55 14.9495C101.265 15.3981 101.122 16.2205 101.122 17.4168C101.122 18.613 101.265 19.4355 101.55 19.8841C101.836 20.3327 102.213 20.557 102.684 20.557ZM105.852 15.7345L105.467 15.5775C105.667 15.0542 106.009 14.5981 106.494 14.2093C106.979 13.8205 107.486 13.6261 108.013 13.6261C108.413 13.6261 108.727 13.7457 108.955 13.985C109.198 14.2093 109.319 14.5308 109.319 14.9495C109.319 15.4131 109.198 15.742 108.955 15.9364C108.727 16.1308 108.484 16.228 108.227 16.228C108 16.228 107.786 16.1457 107.585 15.9813C107.4 15.8168 107.293 15.5626 107.264 15.2187C107.236 14.8598 107.343 14.4037 107.585 13.8504L107.821 13.9402C107.25 14.1794 106.829 14.4336 106.558 14.7028C106.301 14.957 106.066 15.3009 105.852 15.7345ZM113.862 13.8504C114.433 13.8504 114.926 13.9476 115.339 14.142C115.767 14.3215 116.074 14.4859 116.259 14.6355C116.73 15.0242 117.023 14.7701 117.137 13.8729H117.608C117.579 14.2916 117.558 14.7999 117.544 15.3981C117.529 15.9813 117.522 16.7589 117.522 17.7308H117.051C116.966 17.1775 116.816 16.6392 116.602 16.1159C116.402 15.5925 116.103 15.1588 115.703 14.8149C115.318 14.471 114.811 14.299 114.183 14.299C113.713 14.299 113.32 14.4411 113.006 14.7252C112.692 14.9944 112.535 15.3981 112.535 15.9364C112.535 16.385 112.664 16.7738 112.921 17.1028C113.177 17.4318 113.505 17.7383 113.905 18.0224C114.319 18.3065 114.761 18.613 115.232 18.942C115.76 19.3159 116.231 19.6897 116.645 20.0635C117.073 20.4224 117.408 20.8261 117.651 21.2747C117.907 21.7233 118.036 22.2467 118.036 22.8448C118.036 23.5327 117.858 24.1159 117.501 24.5944C117.158 25.0728 116.702 25.4392 116.131 25.6934C115.56 25.9327 114.932 26.0523 114.248 26.0523C113.905 26.0523 113.584 26.0149 113.284 25.9402C112.985 25.8803 112.707 25.7981 112.45 25.6934C112.293 25.6037 112.136 25.514 111.979 25.4243C111.836 25.3196 111.694 25.2224 111.551 25.1327C111.408 25.028 111.28 25.043 111.166 25.1775C111.052 25.3121 110.966 25.5514 110.909 25.8953H110.438C110.466 25.4168 110.488 24.8336 110.502 24.1458C110.517 23.4579 110.523 22.5458 110.523 21.4093H110.994C111.094 22.2318 111.244 22.957 111.444 23.585C111.643 24.2131 111.936 24.7065 112.321 25.0654C112.721 25.4093 113.263 25.5813 113.948 25.5813C114.219 25.5813 114.49 25.5214 114.761 25.4018C115.033 25.2673 115.254 25.0579 115.425 24.7738C115.61 24.4897 115.703 24.1084 115.703 23.6299C115.703 22.9719 115.482 22.4336 115.039 22.0149C114.611 21.5813 114.055 21.1252 113.37 20.6467C112.885 20.2878 112.421 19.9364 111.979 19.5925C111.551 19.2336 111.201 18.8373 110.93 18.4037C110.659 17.9551 110.523 17.4242 110.523 16.8112C110.523 16.1383 110.673 15.585 110.973 15.1514C111.287 14.7177 111.701 14.3962 112.214 14.1869C112.728 13.9626 113.277 13.8504 113.862 13.8504Z" fill="#003667"/>
</g>
<defs>
<linearGradient id="paint0_linear_82_1738" x1="1.05564e-05" y1="-7.45258e-08" x2="14.8447" y2="25.1401" gradientUnits="userSpaceOnUse">
<stop stop-color="#538DFF"/>
<stop offset="1" stop-color="#5EE2FF"/>
</linearGradient>
<linearGradient id="paint1_linear_82_1738" x1="17.5567" y1="6.42987" x2="24.1944" y2="6.42987" gradientUnits="userSpaceOnUse">
<stop stop-color="#538DFF"/>
<stop offset="1" stop-color="#5EE2FF"/>
</linearGradient>
<linearGradient id="paint2_linear_82_1738" x1="20.8486" y1="6.02289e-07" x2="27.3064" y2="-1.82558e-07" gradientUnits="userSpaceOnUse">
<stop stop-color="#538DFF"/>
<stop offset="1" stop-color="#5EE2FF"/>
</linearGradient>
<linearGradient id="paint3_linear_82_1738" x1="13.815" y1="12.8597" x2="20.5967" y2="12.8597" gradientUnits="userSpaceOnUse">
<stop stop-color="#538DFF"/>
<stop offset="1" stop-color="#5EE2FF"/>
</linearGradient>
<clipPath id="clip0_82_1738">
<rect width="119" height="30" fill="white"/>
</clipPath>
</defs>
</svg>
