<svg width="2224" height="535" viewBox="0 0 2224 535" fill="none" xmlns="http://www.w3.org/2000/svg">
<path d="M269.035 440.702C264.4 448.773 252.74 448.725 248.173 440.616L10.0758 17.889C5.57029 9.88971 11.3505 0 20.5314 0H226.584C229.018 0 229.34 3.5251 226.947 3.96679L155.639 17.1264C147.541 18.6209 143.32 27.6413 147.361 34.8162L225.385 173.344L319.671 340.742C321.747 344.429 321.728 348.937 319.621 352.606L269.035 440.702Z" fill="url(#paint0_linear_26_35)"/>
<path d="M389.249 0L323.888 116.044L386.279 232.088L451.639 116.044L389.249 0Z" fill="url(#paint1_linear_26_35)"/>
<path d="M506.924 17.889C511.43 9.88968 505.649 0 496.469 0H389.249L451.639 116.044L506.924 17.889Z" fill="url(#paint2_linear_26_35)"/>
<path d="M268.603 214.199C264.098 222.198 269.878 232.088 279.059 232.088H386.279L323.888 116.044L268.603 214.199Z" fill="url(#paint3_linear_26_35)"/>
<path d="M527 247C550.467 247 568.867 254.067 582.2 268.2C595.533 282.333 602.2 304.733 602.2 335.4H464.2L463.4 327.8H559.8C560.067 314.733 559 302.733 556.6 291.8C554.2 280.6 550.467 271.667 545.4 265C540.333 258.333 533.667 255 525.4 255C513.933 255 503.933 261.133 495.4 273.4C487.133 285.4 482.067 304.733 480.2 331.4L481.4 333.4C481.133 337.133 480.867 341.267 480.6 345.8C480.333 350.067 480.2 354.333 480.2 358.6C480.2 377 483 392.467 488.6 405C494.2 417.533 501.533 427 510.6 433.4C519.667 439.533 528.867 442.6 538.2 442.6C545.4 442.6 552.333 441.533 559 439.4C565.933 437 572.467 433.133 578.6 427.8C584.733 422.2 590.2 414.6 595 405L603 408.2C599.8 417.267 594.867 426.2 588.2 435C581.533 443.8 573 451 562.6 456.6C552.2 461.933 540.067 464.6 526.2 464.6C507.533 464.6 491.267 460.467 477.4 452.2C463.533 443.667 452.867 431.533 445.4 415.8C437.933 400.067 434.2 381.4 434.2 359.8C434.2 336.067 438.067 315.8 445.8 299C453.533 282.2 464.333 269.4 478.2 260.6C492.333 251.533 508.6 247 527 247ZM768.172 247C778.839 247 787.505 248.467 794.172 251.4C801.105 254.067 806.839 257.8 811.372 262.6C816.172 267.667 819.505 274.2 821.372 282.2C823.505 290.2 824.572 301 824.572 314.6V421.8C824.572 433 826.705 440.6 830.972 444.6C835.505 448.6 842.972 450.6 853.372 450.6V459C848.839 458.733 841.772 458.467 832.172 458.2C822.572 457.667 813.105 457.4 803.772 457.4C794.705 457.4 785.639 457.667 776.572 458.2C767.772 458.467 761.105 458.733 756.572 459V450.6C765.639 450.6 772.039 448.6 775.772 444.6C779.505 440.6 781.372 433 781.372 421.8V303.4C781.372 295.667 780.705 288.733 779.372 282.6C778.039 276.2 775.239 271.133 770.972 267.4C766.705 263.4 760.305 261.4 751.772 261.4C741.905 261.4 733.105 264.2 725.372 269.8C717.905 275.4 711.905 283.133 707.372 293C703.105 302.6 700.972 313.4 700.972 325.4V421.8C700.972 433 702.839 440.6 706.572 444.6C710.572 448.6 716.972 450.6 725.772 450.6V459C721.505 458.733 714.972 458.467 706.172 458.2C697.639 457.667 688.705 457.4 679.372 457.4C670.305 457.4 660.839 457.667 650.972 458.2C641.105 458.467 633.772 458.733 628.972 459V450.6C639.372 450.6 646.705 448.6 650.972 444.6C655.505 440.6 657.772 433 657.772 421.8V296.2C657.772 284.2 655.772 275.4 651.772 269.8C647.772 263.933 640.172 261 628.972 261V252.6C637.505 253.4 645.772 253.8 653.772 253.8C662.839 253.8 671.239 253.4 678.972 252.6C686.972 251.533 694.305 250.067 700.972 248.2V291.8C707.905 275.267 717.372 263.667 729.372 257C741.639 250.333 754.572 247 768.172 247ZM1057.59 248.2V415.8C1057.59 427.8 1059.59 436.733 1063.59 442.6C1067.85 448.2 1075.45 451 1086.39 451V459.4C1078.12 458.6 1069.85 458.2 1061.59 458.2C1052.79 458.2 1044.39 458.6 1036.39 459.4C1028.39 460.2 1021.05 461.667 1014.39 463.8V420.2C1007.72 436.2 998.388 447.667 986.388 454.6C974.654 461.267 962.254 464.6 949.188 464.6C939.321 464.6 930.921 463.133 923.988 460.2C917.054 457.533 911.321 453.933 906.788 449.4C901.988 444.067 898.654 437.267 896.788 429C894.921 420.467 893.988 409.8 893.988 397V296.2C893.988 284.2 891.988 275.4 887.988 269.8C883.988 263.933 876.388 261 865.188 261V252.6C873.721 253.4 881.988 253.8 889.988 253.8C898.788 253.8 907.188 253.4 915.188 252.6C923.188 251.533 930.521 250.067 937.188 248.2V408.2C937.188 415.933 937.721 423 938.788 429.4C939.854 435.8 942.388 440.867 946.388 444.6C950.388 448.333 956.788 450.2 965.588 450.2C974.921 450.2 983.188 447.4 990.388 441.8C997.854 436.2 1003.72 428.6 1007.99 419C1012.25 409.4 1014.39 398.6 1014.39 386.6V296.2C1014.39 284.2 1012.39 275.4 1008.39 269.8C1004.39 263.933 996.788 261 985.588 261V252.6C994.121 253.4 1002.39 253.8 1010.39 253.8C1019.19 253.8 1027.59 253.4 1035.59 252.6C1043.59 251.533 1050.92 250.067 1057.59 248.2ZM1179.93 247C1190.6 247 1199.8 248.733 1207.53 252.2C1215.53 255.4 1221.27 258.333 1224.73 261C1233.53 267.933 1239 263.4 1241.13 247.4H1249.93C1249.4 254.867 1249 263.933 1248.73 274.6C1248.47 285 1248.33 298.867 1248.33 316.2H1239.53C1237.93 306.333 1235.13 296.733 1231.13 287.4C1227.4 278.067 1221.8 270.333 1214.33 264.2C1207.13 258.067 1197.67 255 1185.93 255C1177.13 255 1169.8 257.533 1163.93 262.6C1158.07 267.4 1155.13 274.6 1155.13 284.2C1155.13 292.2 1157.53 299.133 1162.33 305C1167.13 310.867 1173.27 316.333 1180.73 321.4C1188.47 326.467 1196.73 331.933 1205.53 337.8C1215.4 344.467 1224.2 351.133 1231.93 357.8C1239.93 364.2 1246.2 371.4 1250.73 379.4C1255.53 387.4 1257.93 396.733 1257.93 407.4C1257.93 419.667 1254.6 430.067 1247.93 438.6C1241.53 447.133 1233 453.667 1222.33 458.2C1211.67 462.467 1199.93 464.6 1187.13 464.6C1180.73 464.6 1174.73 463.933 1169.13 462.6C1163.53 461.533 1158.33 460.067 1153.53 458.2C1150.6 456.6 1147.67 455 1144.73 453.4C1142.07 451.533 1139.4 449.8 1136.73 448.2C1134.07 446.333 1131.67 446.6 1129.53 449C1127.4 451.4 1125.8 455.667 1124.73 461.8H1115.93C1116.47 453.267 1116.87 442.867 1117.13 430.6C1117.4 418.333 1117.53 402.067 1117.53 381.8H1126.33C1128.2 396.467 1131 409.4 1134.73 420.6C1138.47 431.8 1143.93 440.6 1151.13 447C1158.6 453.133 1168.73 456.2 1181.53 456.2C1186.6 456.2 1191.67 455.133 1196.73 453C1201.8 450.6 1205.93 446.867 1209.13 441.8C1212.6 436.733 1214.33 429.933 1214.33 421.4C1214.33 409.667 1210.2 400.067 1201.93 392.6C1193.93 384.867 1183.53 376.733 1170.73 368.2C1161.67 361.8 1153 355.533 1144.73 349.4C1136.73 343 1130.2 335.933 1125.13 328.2C1120.07 320.2 1117.53 310.733 1117.53 299.8C1117.53 287.8 1120.33 277.933 1125.93 270.2C1131.8 262.467 1139.53 256.733 1149.13 253C1158.73 249 1169 247 1179.93 247ZM1388.85 175.8C1394.98 176.067 1402.85 176.333 1412.45 176.6C1422.32 176.867 1432.05 177 1441.65 177C1454.45 177 1466.58 176.867 1478.05 176.6C1489.78 176.333 1498.05 176.2 1502.85 176.2C1532.72 176.2 1554.98 182.067 1569.65 193.8C1584.58 205.533 1592.05 220.6 1592.05 239C1592.05 248.333 1589.78 257.667 1585.25 267C1580.98 276.067 1573.92 284.333 1564.05 291.8C1554.18 299 1541.12 304.733 1524.85 309V309.8C1547.25 312.2 1564.85 317 1577.65 324.2C1590.45 331.4 1599.52 340.067 1604.85 350.2C1610.18 360.067 1612.85 370.467 1612.85 381.4C1612.85 397.133 1608.85 410.867 1600.85 422.6C1592.85 434.067 1581.25 443 1566.05 449.4C1551.12 455.8 1533.12 459 1512.05 459C1506.18 459 1497.25 458.867 1485.25 458.6C1473.52 458.067 1459.25 457.8 1442.45 457.8C1432.32 457.8 1422.32 457.933 1412.45 458.2C1402.85 458.2 1394.98 458.467 1388.85 459V451C1397.92 450.467 1404.72 449.4 1409.25 447.8C1413.78 446.2 1416.72 443 1418.05 438.2C1419.65 433.4 1420.45 426.2 1420.45 416.6V218.2C1420.45 208.333 1419.65 201.133 1418.05 196.6C1416.72 191.8 1413.65 188.6 1408.85 187C1404.32 185.133 1397.65 184.067 1388.85 183.8V175.8ZM1494.45 183.8C1482.98 183.8 1475.38 186.067 1471.65 190.6C1468.18 195.133 1466.45 204.333 1466.45 218.2V416.6C1466.45 425.933 1467.25 433 1468.85 437.8C1470.45 442.6 1473.25 445.8 1477.25 447.4C1481.52 449 1487.65 449.8 1495.65 449.8C1519.65 449.8 1536.98 443.8 1547.65 431.8C1558.58 419.533 1564.05 402.2 1564.05 379.8C1564.05 359.267 1558.58 343.4 1547.65 332.2C1536.98 321 1519.25 315.4 1494.45 315.4H1455.65C1455.65 315.4 1455.65 314.333 1455.65 312.2C1455.65 309.8 1455.65 308.6 1455.65 308.6H1490.05C1504.72 308.6 1516.05 305.667 1524.05 299.8C1532.05 293.667 1537.52 285.667 1540.45 275.8C1543.38 265.667 1544.85 254.867 1544.85 243.4C1544.85 223.667 1540.98 208.867 1533.25 199C1525.52 188.867 1512.58 183.8 1494.45 183.8ZM1695.92 461.8C1684.72 461.8 1675.12 459.667 1667.12 455.4C1659.12 451.133 1653.12 445.267 1649.12 437.8C1645.12 430.333 1643.12 421.8 1643.12 412.2C1643.12 400.467 1645.79 391 1651.12 383.8C1656.45 376.333 1663.25 370.333 1671.52 365.8C1680.05 361.267 1688.99 357.533 1698.32 354.6C1707.92 351.4 1716.85 348.467 1725.12 345.8C1733.65 342.867 1740.59 339.533 1745.92 335.8C1751.52 332.067 1754.32 327.133 1754.32 321V293.8C1754.32 284.2 1752.72 276.6 1749.52 271C1746.59 265.133 1742.45 261 1737.12 258.6C1732.05 256.2 1725.92 255 1718.72 255C1712.59 255 1706.05 255.933 1699.12 257.8C1692.19 259.4 1686.72 262.733 1682.72 267.8C1688.59 269.4 1693.39 272.6 1697.12 277.4C1701.12 281.933 1703.12 287.667 1703.12 294.6C1703.12 302.067 1700.59 307.933 1695.52 312.2C1690.72 316.467 1684.59 318.6 1677.12 318.6C1668.85 318.6 1662.72 316.067 1658.72 311C1654.72 305.667 1652.72 299.533 1652.72 292.6C1652.72 285.4 1654.45 279.533 1657.92 275C1661.65 270.467 1666.45 266.2 1672.32 262.2C1678.72 257.933 1686.85 254.333 1696.72 251.4C1706.85 248.467 1718.05 247 1730.32 247C1741.79 247 1751.65 248.333 1759.92 251C1768.45 253.4 1775.52 257.4 1781.12 263C1787.79 269.133 1792.19 276.867 1794.32 286.2C1796.45 295.267 1797.52 306.333 1797.52 319.4V429.8C1797.52 436.467 1798.32 441.267 1799.92 444.2C1801.79 446.867 1804.72 448.2 1808.72 448.2C1811.39 448.2 1813.92 447.533 1816.32 446.2C1818.99 444.867 1822.05 442.867 1825.52 440.2L1829.52 447C1823.92 451.533 1818.19 455.133 1812.32 457.8C1806.72 460.467 1799.52 461.8 1790.72 461.8C1782.19 461.8 1775.25 460.467 1769.92 457.8C1764.59 455.133 1760.59 451.267 1757.92 446.2C1755.52 441.133 1754.32 434.867 1754.32 427.4C1747.39 438.6 1739.12 447.133 1729.52 453C1719.92 458.867 1708.72 461.8 1695.92 461.8ZM1715.12 442.6C1722.59 442.6 1729.52 440.467 1735.92 436.2C1742.59 431.933 1748.72 425.533 1754.32 417V337.4C1751.39 341.667 1747.12 345.4 1741.52 348.6C1735.92 351.533 1729.92 354.6 1723.52 357.8C1717.12 361 1710.99 364.733 1705.12 369C1699.52 373 1694.85 378.2 1691.12 384.6C1687.39 391 1685.52 399.133 1685.52 409C1685.52 419.4 1688.19 427.667 1693.52 433.8C1698.85 439.667 1706.05 442.6 1715.12 442.6ZM1916.67 534.2C1901.74 534.2 1887.87 532.733 1875.07 529.8C1862.54 526.867 1852.41 522.333 1844.67 516.2C1837.21 510.333 1833.47 502.733 1833.47 493.4C1833.47 484.6 1837.21 476.867 1844.67 470.2C1852.14 463.533 1862.67 458.467 1876.27 455L1879.07 461.4C1873.47 463.8 1869.07 467.667 1865.87 473C1862.94 478.333 1861.47 484.2 1861.47 490.6C1861.47 502.333 1866.94 511.4 1877.87 517.8C1888.81 524.2 1903.21 527.4 1921.07 527.4C1933.07 527.4 1944.41 525.8 1955.07 522.6C1966.01 519.667 1974.81 514.733 1981.47 507.8C1988.41 500.867 1991.87 491.933 1991.87 481C1991.87 472.467 1988.81 465.267 1982.67 459.4C1976.54 453.8 1964.41 451 1946.27 451H1918.27C1908.94 451 1900.27 450.2 1892.27 448.6C1884.27 447 1877.74 443.933 1872.67 439.4C1867.87 434.6 1865.47 427.933 1865.47 419.4C1865.47 409.8 1869.47 400.733 1877.47 392.2C1885.47 383.667 1898.94 375.267 1917.87 367L1922.67 370.6C1914.94 374.867 1908.01 379.267 1901.87 383.8C1896.01 388.067 1893.07 393.4 1893.07 399.8C1893.07 408.333 1899.21 412.6 1911.47 412.6H1959.07C1971.61 412.6 1982.94 414.333 1993.07 417.8C2003.21 421 2011.34 426.2 2017.47 433.4C2023.61 440.6 2026.67 450.067 2026.67 461.8C2026.67 474.333 2022.54 486.067 2014.27 497C2006.27 508.2 1994.14 517.133 1977.87 523.8C1961.61 530.733 1941.21 534.2 1916.67 534.2ZM1919.07 373.8C1905.47 373.8 1893.07 371.667 1881.87 367.4C1870.67 362.867 1861.87 355.933 1855.47 346.6C1849.07 337.267 1845.87 325.267 1845.87 310.6C1845.87 295.933 1849.07 283.933 1855.47 274.6C1861.87 265 1870.67 258.067 1881.87 253.8C1893.07 249.267 1905.47 247 1919.07 247C1933.21 247 1945.74 249.267 1956.67 253.8C1967.61 258.067 1976.27 265 1982.67 274.6C1989.07 283.933 1992.27 295.933 1992.27 310.6C1992.27 325.267 1989.07 337.267 1982.67 346.6C1976.27 355.933 1967.61 362.867 1956.67 367.4C1945.74 371.667 1933.21 373.8 1919.07 373.8ZM1919.07 366.6C1928.41 366.6 1935.61 362.6 1940.67 354.6C1945.74 346.6 1948.27 331.933 1948.27 310.6C1948.27 289.267 1945.74 274.6 1940.67 266.6C1935.61 258.333 1928.41 254.2 1919.07 254.2C1910.27 254.2 1903.21 258.333 1897.87 266.6C1892.54 274.6 1889.87 289.267 1889.87 310.6C1889.87 331.933 1892.54 346.6 1897.87 354.6C1903.21 362.6 1910.27 366.6 1919.07 366.6ZM1978.27 280.6L1971.07 277.8C1974.81 268.467 1981.21 260.333 1990.27 253.4C1999.34 246.467 2008.81 243 2018.67 243C2026.14 243 2032.01 245.133 2036.27 249.4C2040.81 253.4 2043.07 259.133 2043.07 266.6C2043.07 274.867 2040.81 280.733 2036.27 284.2C2032.01 287.667 2027.47 289.4 2022.67 289.4C2018.41 289.4 2014.41 287.933 2010.67 285C2007.21 282.067 2005.21 277.533 2004.67 271.4C2004.14 265 2006.14 256.867 2010.67 247L2015.07 248.6C2004.41 252.867 1996.54 257.4 1991.47 262.2C1986.67 266.733 1982.27 272.867 1978.27 280.6ZM2127.98 247C2138.65 247 2147.85 248.733 2155.58 252.2C2163.58 255.4 2169.31 258.333 2172.78 261C2181.58 267.933 2187.05 263.4 2189.18 247.4H2197.98C2197.45 254.867 2197.05 263.933 2196.78 274.6C2196.51 285 2196.38 298.867 2196.38 316.2H2187.58C2185.98 306.333 2183.18 296.733 2179.18 287.4C2175.45 278.067 2169.85 270.333 2162.38 264.2C2155.18 258.067 2145.71 255 2133.98 255C2125.18 255 2117.85 257.533 2111.98 262.6C2106.11 267.4 2103.18 274.6 2103.18 284.2C2103.18 292.2 2105.58 299.133 2110.38 305C2115.18 310.867 2121.31 316.333 2128.78 321.4C2136.51 326.467 2144.78 331.933 2153.58 337.8C2163.45 344.467 2172.25 351.133 2179.98 357.8C2187.98 364.2 2194.25 371.4 2198.78 379.4C2203.58 387.4 2205.98 396.733 2205.98 407.4C2205.98 419.667 2202.65 430.067 2195.98 438.6C2189.58 447.133 2181.05 453.667 2170.38 458.2C2159.71 462.467 2147.98 464.6 2135.18 464.6C2128.78 464.6 2122.78 463.933 2117.18 462.6C2111.58 461.533 2106.38 460.067 2101.58 458.2C2098.65 456.6 2095.71 455 2092.78 453.4C2090.11 451.533 2087.45 449.8 2084.78 448.2C2082.11 446.333 2079.71 446.6 2077.58 449C2075.45 451.4 2073.85 455.667 2072.78 461.8H2063.98C2064.51 453.267 2064.91 442.867 2065.18 430.6C2065.45 418.333 2065.58 402.067 2065.58 381.8H2074.38C2076.25 396.467 2079.05 409.4 2082.78 420.6C2086.51 431.8 2091.98 440.6 2099.18 447C2106.65 453.133 2116.78 456.2 2129.58 456.2C2134.65 456.2 2139.71 455.133 2144.78 453C2149.85 450.6 2153.98 446.867 2157.18 441.8C2160.65 436.733 2162.38 429.933 2162.38 421.4C2162.38 409.667 2158.25 400.067 2149.98 392.6C2141.98 384.867 2131.58 376.733 2118.78 368.2C2109.71 361.8 2101.05 355.533 2092.78 349.4C2084.78 343 2078.25 335.933 2073.18 328.2C2068.11 320.2 2065.58 310.733 2065.58 299.8C2065.58 287.8 2068.38 277.933 2073.98 270.2C2079.85 262.467 2087.58 256.733 2097.18 253C2106.78 249 2117.05 247 2127.98 247Z" fill="#003667"/>
<defs>
<linearGradient id="paint0_linear_26_35" x1="0" y1="0" x2="258.59" y2="458.949" gradientUnits="userSpaceOnUse">
<stop stop-color="#538DFF"/>
<stop offset="1" stop-color="#5EE2FF"/>
</linearGradient>
<linearGradient id="paint1_linear_26_35" x1="328.118" y1="114.666" x2="452.171" y2="114.666" gradientUnits="userSpaceOnUse">
<stop stop-color="#538DFF"/>
<stop offset="1" stop-color="#5EE2FF"/>
</linearGradient>
<linearGradient id="paint2_linear_26_35" x1="389.64" y1="9.9438e-06" x2="510.331" y2="-5.4281e-06" gradientUnits="userSpaceOnUse">
<stop stop-color="#538DFF"/>
<stop offset="1" stop-color="#5EE2FF"/>
</linearGradient>
<linearGradient id="paint3_linear_26_35" x1="258.191" y1="229.332" x2="384.934" y2="229.332" gradientUnits="userSpaceOnUse">
<stop stop-color="#538DFF"/>
<stop offset="1" stop-color="#5EE2FF"/>
</linearGradient>
</defs>
</svg>
